<svg version="1.1" viewBox="0.0 0.0 660.7217847769028 220.5511811023622" fill="none" stroke="none" stroke-linecap="square" stroke-miterlimit="10" xmlns:xlink="http://www.w3.org/1999/xlink" xmlns="http://www.w3.org/2000/svg"><clipPath id="p.0"><path d="m0 0l660.7218 0l0 220.55118l-660.7218 0l0 -220.55118z" clip-rule="nonzero"/></clipPath><g clip-path="url(#p.0)"><path fill="#000000" fill-opacity="0.0" d="m0 0l660.7218 0l0 220.55118l-660.7218 0z" fill-rule="evenodd"/><path fill="#efefef" d="m54.262466 68.763855l0 0c0 -2.0497284 1.6616325 -3.7113647 3.711361 -3.7113647l119.25444 0c0.98431396 0 1.9283142 0.39102173 2.6243286 1.0870361c0.6960144 0.6960144 1.0870361 1.6400146 1.0870361 2.6243286l0 14.844994c0 2.0497284 -1.6616364 3.7113647 -3.7113647 3.7113647l-119.25444 0c-2.0497284 0 -3.711361 -1.6616364 -3.711361 -3.7113647z" fill-rule="evenodd"/><path stroke="#000000" stroke-width="1.0" stroke-linejoin="round" stroke-linecap="butt" d="m54.262466 68.763855l0 0c0 -2.0497284 1.6616325 -3.7113647 3.711361 -3.7113647l119.25444 0c0.98431396 0 1.9283142 0.39102173 2.6243286 1.0870361c0.6960144 0.6960144 1.0870361 1.6400146 1.0870361 2.6243286l0 14.844994c0 2.0497284 -1.6616364 3.7113647 -3.7113647 3.7113647l-119.25444 0c-2.0497284 0 -3.711361 -1.6616364 -3.711361 -3.7113647z" fill-rule="evenodd"/><path fill="#000000" d="m76.12449 82.04635l0 -11.453125l1.515625 0l0 11.453125l-1.515625 0zm4.1640625 0l0 -11.453125l1.5625 0l6.015625 8.984375l0 -8.984375l1.453125 0l0 11.453125l-1.5625 0l-6.015625 -9.0l0 9.0l-1.453125 0zm11.0546875 -3.6875l1.4375 -0.125q0.09375 0.859375 0.46875 1.421875q0.375 0.546875 1.15625 0.890625q0.78125 0.328125 1.75 0.328125q0.875 0 1.53125 -0.25q0.671875 -0.265625 0.984375 -0.703125q0.328125 -0.453125 0.328125 -0.984375q0 -0.546875 -0.3125 -0.9375q-0.3125 -0.40625 -1.03125 -0.6875q-0.453125 -0.171875 -2.03125 -0.546875q-1.578125 -0.390625 -2.21875 -0.71875q-0.8125 -0.4375 -1.21875 -1.0625q-0.40625 -0.640625 -0.40625 -1.4375q0 -0.859375 0.484375 -1.609375q0.5 -0.765625 1.4375 -1.15625q0.953125 -0.390625 2.109375 -0.390625q1.28125 0 2.25 0.421875q0.96875 0.40625 1.484375 1.203125q0.53125 0.796875 0.578125 1.796875l-1.453125 0.109375q-0.125 -1.078125 -0.796875 -1.625q-0.671875 -0.5625 -2.0 -0.5625q-1.375 0 -2.0 0.5q-0.625 0.5 -0.625 1.21875q0 0.609375 0.4375 1.015625q0.4375 0.390625 2.28125 0.8125q1.859375 0.421875 2.546875 0.734375q1.0 0.453125 1.46875 1.171875q0.484375 0.703125 0.484375 1.625q0 0.90625 -0.53125 1.71875q-0.515625 0.8125 -1.5 1.265625q-0.984375 0.453125 -2.203125 0.453125q-1.5625 0 -2.609375 -0.453125q-1.046875 -0.46875 -1.65625 -1.375q-0.59375 -0.90625 -0.625 -2.0625zm14.109375 3.6875l0 -10.109375l-3.78125 0l0 -1.34375l9.078125 0l0 1.34375l-3.78125 0l0 10.109375l-1.515625 0zm4.3984375 0l4.40625 -11.453125l1.640625 0l4.6875 11.453125l-1.734375 0l-1.328125 -3.46875l-4.796875 0l-1.25 3.46875l-1.625 0zm3.3125 -4.703125l3.890625 0l-1.203125 -3.171875q-0.546875 -1.453125 -0.8125 -2.375q-0.21875 1.09375 -0.609375 2.1875l-1.265625 3.359375zm8.5625 4.703125l0 -11.453125l1.515625 0l0 10.09375l5.6406326 0l0 1.359375l-7.1562576 0zm8.898445 0l0 -11.453125l1.515625 0l0 10.09375l5.640625 0l0 1.359375l-7.15625 0zm8.9921875 0l0 -11.453125l8.28125 0l0 1.34375l-6.765625 0l0 3.515625l6.34375 0l0 1.34375l-6.34375 0l0 3.890625l7.03125 0l0 1.359375l-8.546875 0zm10.640625 0l0 -11.453125l3.953125 0q1.328125 0 2.03125 0.15625q0.984375 0.234375 1.6875 0.828125q0.90625 0.765625 1.34375 1.953125q0.453125 1.1875 0.453125 2.71875q0 1.3125 -0.3125 2.328125q-0.296875 1.0 -0.78125 1.65625q-0.46875 0.65625 -1.03125 1.046875q-0.5625 0.375 -1.375 0.578125q-0.796875 0.1875 -1.828125 0.1875l-4.140625 0zm1.515625 -1.359375l2.453125 0q1.125 0 1.765625 -0.203125q0.65625 -0.21875 1.03125 -0.59375q0.546875 -0.546875 0.84375 -1.453125q0.296875 -0.90625 0.296875 -2.203125q0 -1.796875 -0.59375 -2.765625q-0.578125 -0.96875 -1.421875 -1.296875q-0.609375 -0.234375 -1.96875 -0.234375l-2.40625 0l0 8.75z" fill-rule="nonzero"/><path fill="#000000" fill-opacity="0.0" d="m117.60105 87.32021l0.09449005 41.826775" fill-rule="evenodd"/><path stroke="#000000" stroke-width="1.0" stroke-linejoin="round" stroke-linecap="butt" d="m117.6146 93.32019l0.06738281 29.826813" fill-rule="evenodd"/><path fill="#000000" stroke="#000000" stroke-width="1.0" stroke-linecap="butt" d="m119.266335 93.31646l-1.6619797 -4.5343475l-1.6414795 4.5418167z" fill-rule="evenodd"/><path fill="#000000" stroke="#000000" stroke-width="1.0" stroke-linecap="butt" d="m116.03026 123.15073l1.6619797 4.534355l1.6414719 -4.5418167z" fill-rule="evenodd"/><path fill="#000000" fill-opacity="0.0" d="m180.93964 76.18635l41.826767 -29.543304" fill-rule="evenodd"/><path stroke="#000000" stroke-width="1.0" stroke-linejoin="round" stroke-linecap="butt" d="m180.93964 76.18635l36.925995 -26.081757" fill-rule="evenodd"/><path fill="#000000" stroke="#000000" stroke-width="1.0" stroke-linecap="butt" d="m218.81854 51.453724l2.7537842 -3.9672737l-4.6596375 1.2690125z" fill-rule="evenodd"/><path fill="#000000" fill-opacity="0.0" d="m349.4462 46.656166l38.362213 35.685043" fill-rule="evenodd"/><path stroke="#000000" stroke-width="1.0" stroke-linejoin="round" stroke-linecap="butt" d="m349.4462 46.656166l33.969025 31.598465" fill-rule="evenodd"/><path fill="#000000" stroke="#000000" stroke-width="1.0" stroke-linecap="butt" d="m382.29025 79.46402l4.447754 1.8814926l-2.1977844 -4.30027z" fill-rule="evenodd"/><path fill="#000000" fill-opacity="0.0" d="m387.7953 82.34121l-38.362213 35.685036" fill-rule="evenodd"/><path stroke="#000000" stroke-width="1.0" stroke-linejoin="round" stroke-linecap="butt" d="m387.7953 82.34121l-33.969055 31.598457" fill-rule="evenodd"/><path fill="#000000" stroke="#000000" stroke-width="1.0" stroke-linecap="butt" d="m352.70123 112.73028l-2.197754 4.30027l4.447754 -1.8814926z" fill-rule="evenodd"/><path fill="#000000" fill-opacity="0.0" d="m222.76903 118.020996l-41.826767 -41.826767" fill-rule="evenodd"/><path stroke="#000000" stroke-width="1.0" stroke-linejoin="round" stroke-linecap="butt" d="m222.76903 118.020996l-37.584137 -37.58413" fill-rule="evenodd"/><path fill="#000000" stroke="#000000" stroke-width="1.0" stroke-linecap="butt" d="m186.35284 79.26891l-4.3768616 -2.0409698l2.0409698 4.376877z" fill-rule="evenodd"/><path fill="#000000" fill-opacity="0.0" d="m286.1076 57.790028l0 49.10236" fill-rule="evenodd"/><path stroke="#000000" stroke-width="1.0" stroke-linejoin="round" stroke-linecap="butt" d="m286.1076 57.790028l0 43.10236" fill-rule="evenodd"/><path fill="#000000" stroke="#000000" stroke-width="1.0" stroke-linecap="butt" d="m284.45587 100.89239l1.6517334 4.538101l1.6517334 -4.538101z" fill-rule="evenodd"/><path fill="#efefef" d="m222.76903 39.23367l0 0c0 -2.0497284 1.6616364 -3.711361 3.7113647 -3.711361l119.25444 0c0.98431396 0 1.9283142 0.3910179 2.6243286 1.0870323c0.6960144 0.6960182 1.0870361 1.6400146 1.0870361 2.6243286l0 14.844997c0 2.0497284 -1.6616211 3.711361 -3.7113647 3.711361l-119.25444 0c-2.0497284 0 -3.7113647 -1.6616325 -3.7113647 -3.711361z" fill-rule="evenodd"/><path stroke="#666666" stroke-width="1.0" stroke-linejoin="round" stroke-linecap="butt" d="m222.76903 39.23367l0 0c0 -2.0497284 1.6616364 -3.711361 3.7113647 -3.711361l119.25444 0c0.98431396 0 1.9283142 0.3910179 2.6243286 1.0870323c0.6960144 0.6960182 1.0870361 1.6400146 1.0870361 2.6243286l0 14.844997c0 2.0497284 -1.6616211 3.711361 -3.7113647 3.711361l-119.25444 0c-2.0497284 0 -3.7113647 -1.6616325 -3.7113647 -3.711361z" fill-rule="evenodd"/><path fill="#666666" d="m247.52559 48.81304l1.5 -0.140625l-0.015625 0.390625q0 0.671875 0.296875 1.21875q0.3125 0.546875 1.015625 0.859375q0.703125 0.296875 1.671875 0.296875q1.375 0 2.09375 -0.59375q0.734375 -0.609375 0.734375 -1.390625q0 -0.53125 -0.390625 -0.984375q-0.390625 -0.4375 -2.125 -1.1875q-1.359375 -0.578125 -1.84375 -0.890625q-0.78125 -0.515625 -1.15625 -1.109375q-0.359375 -0.59375 -0.359375 -1.359375q0 -0.890625 0.484375 -1.59375q0.484375 -0.71875 1.421875 -1.09375q0.9375 -0.375 2.109375 -0.375q1.390625 0 2.34375 0.46875q0.96873474 0.46875 1.4062347 1.25q0.4375 0.78125 0.4375 1.5q0 0.0625 -0.015625 0.234375l-1.4687347 0.109375q0 -0.484375 -0.09375 -0.75q-0.15625 -0.484375 -0.484375 -0.8125q-0.328125 -0.328125 -0.90625 -0.515625q-0.5625 -0.203125 -1.28125 -0.203125q-1.25 0 -1.9375 0.5625q-0.53125 0.421875 -0.53125 1.140625q0 0.421875 0.21875 0.75q0.21875 0.328125 0.78125 0.65625q0.40625 0.21875 1.9375 0.890625q1.234375 0.546875 1.703125 0.859375q0.625 0.421875 0.95310974 1.015625q0.34375 0.578125 0.34375 1.328125q0 0.9375 -0.57810974 1.71875q-0.5625 0.78125 -1.5625 1.21875q-1.0 0.4375 -2.28125 0.4375q-1.953125 0 -3.1875 -0.84375q-1.21875 -0.859375 -1.234375 -3.0625zm13.187485 3.703125l2.109375 -10.15625l-3.75 0l0.265625 -1.296875l9.015625 0l-0.265625 1.296875l-3.734375 0l-2.109375 10.15625l-1.53125 0zm4.6171875 0l6.5 -11.453125l1.8125 0l1.890625 11.453125l-1.484375 0l-0.5625 -3.296875l-4.625 0l-1.84375 3.296875l-1.6875 0zm4.1875 -4.484375l3.78125 0l-0.4375 -2.875q-0.265625 -1.703125 -0.328125 -2.84375q-0.390625 0.984375 -1.140625 2.328125l-1.875 3.390625zm7.5625 4.484375l2.40625 -11.453125l4.796875 0q1.421875 0 2.15625 0.234375q0.734375 0.234375 1.15625 0.890625q0.421875 0.65625 0.421875 1.65625q0 1.40625 -0.921875 2.328125q-0.90625 0.921875 -2.953125 1.1875q0.625 0.46875 0.953125 0.90625q0.71875 1.015625 1.15625 2.09375l0.875 2.15625l-1.71875 0l-0.8125 -2.140625q-0.453125 -1.15625 -1.015625 -2.0q-0.390625 -0.578125 -0.796875 -0.765625q-0.40625 -0.1875 -1.328125 -0.1875l-1.78125 0l-1.0625 5.09375l-1.53125 0zm2.859375 -6.328125l2.109375 0q1.46875 0 1.921875 -0.046875q0.859375 -0.078125 1.40625 -0.375q0.5625 -0.3125 0.859375 -0.828125q0.3125 -0.515625 0.3125 -1.109375q0 -0.5 -0.234375 -0.875q-0.21875 -0.375 -0.59375 -0.5q-0.359375 -0.140625 -1.234375 -0.140625l-3.734375 0l-0.8125 3.875zm11.296875 6.328125l2.109375 -10.15625l-3.75 0l0.265625 -1.296875l9.015625 0l-0.265625 1.296875l-3.734375 0l-2.109375 10.15625l-1.53125 0zm7.0546875 0l2.390625 -11.453125l1.53125 0l-2.390625 11.453125l-1.53125 0zm4.3046875 0l2.40625 -11.453125l1.484375 0l1.921875 4.296875q0.890625 1.96875 1.40625 3.3125q0.296875 0.78125 0.6875 2.109375q0.203125 -1.453125 0.53125 -2.984375l1.40625 -6.734375l1.484375 0l-2.390625 11.453125l-1.515625 0l-2.84375 -6.625q-0.75 -1.75 -1.171875 -3.078125q-0.125 1.109375 -0.453125 2.734375l-1.453125 6.96875l-1.5 0zm17.335938 -4.515625l0.265625 -1.296875l5.015625 0l-0.96875 4.65625q-0.953125 0.59375 -2.171875 0.984375q-1.203125 0.375 -2.375 0.375q-2.5 0 -3.734375 -1.515625q-1.03125 -1.28125 -1.03125 -3.28125q0 -2.0625 0.90625 -3.75q0.90625 -1.6875 2.296875 -2.5q1.390625 -0.8125 3.078125 -0.8125q1.21875 0 2.1875 0.453125q0.96875 0.4375 1.484375 1.171875q0.515625 0.734375 0.75 1.921875l-1.5 0.171875q-0.25 -1.1875 -1.015625 -1.8125q-0.75 -0.625 -1.953125 -0.625q-1.234375 0 -2.3125 0.671875q-1.078125 0.671875 -1.734375 2.046875q-0.640625 1.359375 -0.640625 3.09375q0 1.71875 0.84375 2.609375q0.859375 0.875 2.359375 0.875q1.5 0 3.21875 -0.984375l0.515625 -2.453125l-3.484375 0z" fill-rule="nonzero"/><path fill="#efefef" d="m222.76903 110.5985l0 0c0 -2.0497284 1.6616364 -3.7113647 3.7113647 -3.7113647l119.25444 0c0.98431396 0 1.9283142 0.39102173 2.6243286 1.0870361c0.6960144 0.6960144 1.0870361 1.6400146 1.0870361 2.6243286l0 14.844994c0 2.0497284 -1.6616211 3.7113647 -3.7113647 3.7113647l-119.25444 0c-2.0497284 0 -3.7113647 -1.6616364 -3.7113647 -3.7113647z" fill-rule="evenodd"/><path stroke="#666666" stroke-width="1.0" stroke-linejoin="round" stroke-linecap="butt" d="m222.76903 110.5985l0 0c0 -2.0497284 1.6616364 -3.7113647 3.7113647 -3.7113647l119.25444 0c0.98431396 0 1.9283142 0.39102173 2.6243286 1.0870361c0.6960144 0.6960144 1.0870361 1.6400146 1.0870361 2.6243286l0 14.844994c0 2.0497284 -1.6616211 3.7113647 -3.7113647 3.7113647l-119.25444 0c-2.0497284 0 -3.7113647 -1.6616364 -3.7113647 -3.7113647z" fill-rule="evenodd"/><path fill="#666666" d="m246.03731 120.17787l1.5 -0.140625l-0.015625 0.390625q0 0.671875 0.296875 1.21875q0.3125 0.546875 1.015625 0.859375q0.703125 0.296875 1.671875 0.296875q1.375 0 2.09375 -0.59375q0.734375 -0.609375 0.734375 -1.390625q0 -0.53125 -0.390625 -0.984375q-0.390625 -0.4375 -2.125 -1.1875q-1.359375 -0.578125 -1.84375 -0.890625q-0.78125 -0.515625 -1.15625 -1.109375q-0.359375 -0.59375 -0.359375 -1.359375q0 -0.890625 0.484375 -1.59375q0.484375 -0.71875 1.421875 -1.09375q0.9375 -0.375 2.109375 -0.375q1.390625 0 2.34375 0.46875q0.96875 0.46875 1.40625 1.25q0.4375 0.78125 0.4375 1.5q0 0.0625 -0.015625 0.234375l-1.46875 0.109375q0 -0.484375 -0.09375 -0.75q-0.15625 -0.484375 -0.484375 -0.8125q-0.328125 -0.328125 -0.90625 -0.515625q-0.5625 -0.203125 -1.28125 -0.203125q-1.25 0 -1.9375 0.5625q-0.53125 0.421875 -0.53125 1.140625q0 0.421875 0.21875 0.75q0.21875 0.328125 0.78125 0.65625q0.40625 0.21875 1.9375 0.890625q1.234375 0.546875 1.703125 0.859375q0.625 0.421875 0.953125 1.015625q0.34375 0.578125 0.34375 1.328125q0 0.9375 -0.578125 1.71875q-0.5625 0.78125 -1.5625 1.21875q-1.0 0.4375 -2.28125 0.4375q-1.953125 0 -3.1875 -0.84375q-1.21875 -0.859375 -1.234375 -3.0625zm13.187485 3.703125l2.109375 -10.15625l-3.75 0l0.265625 -1.296875l9.015625 0l-0.265625 1.296875l-3.734375 0l-2.109375 10.15625l-1.53125 0zm7.3125 -4.796875q0 -3.0625 1.765625 -4.953125q1.765625 -1.90625 4.296875 -1.90625q2.140625 0 3.484375 1.40625q1.34375 1.390625 1.34375 3.734375q0 1.671875 -0.671875 3.09375q-0.515625 1.078125 -1.296875 1.859375q-0.765625 0.765625 -1.640625 1.1875q-1.171875 0.578125 -2.484375 0.578125q-1.375 0 -2.515625 -0.65625q-1.125 -0.671875 -1.703125 -1.84375q-0.578125 -1.171875 -0.578125 -2.5zm1.5 0.078125q0 1.0 0.421875 1.84375q0.421875 0.84375 1.25 1.328125q0.828125 0.46875 1.734375 0.46875q0.890625 0 1.6875 -0.40625q0.796875 -0.421875 1.421875 -1.171875q0.625 -0.75 0.984375 -1.828125q0.375 -1.09375 0.375 -2.15625q0 -1.703125 -0.96875 -2.71875q-0.953125 -1.015625 -2.359375 -1.015625q-1.796875 0 -3.171875 1.53125q-1.375 1.53125 -1.375 4.125zm10.1640625 4.71875l2.40625 -11.453125l4.78125 0q1.234375 0 1.859375 0.28125q0.625 0.28125 1.03125 0.984375q0.40625 0.6875 0.40625 1.546875q0 0.703125 -0.296875 1.4375q-0.28125 0.734375 -0.734375 1.21875q-0.4375 0.46875 -0.890625 0.71875q-0.453125 0.234375 -0.96875 0.359375q-1.09375 0.25 -2.21875 0.25l-2.875 0l-0.96875 4.65625l-1.53125 0zm2.78125 -5.953125l2.515625 0q1.46875 0 2.15625 -0.3125q0.6875 -0.3125 1.09375 -0.953125q0.421875 -0.65625 0.421875 -1.390625q0 -0.5625 -0.21875 -0.90625q-0.21875 -0.359375 -0.625 -0.53125q-0.390625 -0.171875 -1.515625 -0.171875l-2.9375 0l-0.890625 4.265625zm7.890625 5.953125l2.40625 -11.453125l4.78125 0q1.234375 0 1.859375 0.28125q0.625 0.28125 1.03125 0.984375q0.40625 0.6875 0.40625 1.546875q0 0.703125 -0.296875 1.4375q-0.28125 0.734375 -0.734375 1.21875q-0.4375 0.46875 -0.890625 0.71875q-0.453125 0.234375 -0.96875 0.359375q-1.09375 0.25 -2.21875 0.25l-2.875 0l-0.96875 4.65625l-1.53125 0zm2.78125 -5.953125l2.515625 0q1.46875 0 2.15625 -0.3125q0.6875 -0.3125 1.09375 -0.953125q0.421875 -0.65625 0.421875 -1.390625q0 -0.5625 -0.21875 -0.90625q-0.21875 -0.359375 -0.625 -0.53125q-0.390625 -0.171875 -1.515625 -0.171875l-2.9375 0l-0.890625 4.265625zm8.125 5.953125l2.390625 -11.453125l1.53125 0l-2.390625 11.453125l-1.53125 0zm4.3046875 0l2.40625 -11.453125l1.484375 0l1.921875 4.296875q0.890625 1.96875 1.40625 3.3125q0.296875 0.78125 0.6875 2.109375q0.203125 -1.453125 0.53125 -2.984375l1.40625 -6.734375l1.484375 0l-2.390625 11.453125l-1.515625 0l-2.84375 -6.625q-0.75 -1.75 -1.171875 -3.078125q-0.125 1.109375 -0.453125 2.734375l-1.453125 6.96875l-1.5 0zm17.335938 -4.515625l0.265625 -1.296875l5.015625 0l-0.96875 4.65625q-0.953125 0.59375 -2.171875 0.984375q-1.203125 0.375 -2.375 0.375q-2.5 0 -3.734375 -1.515625q-1.03125 -1.28125 -1.03125 -3.28125q0 -2.0625 0.90625 -3.75q0.90625 -1.6875 2.296875 -2.5q1.390625 -0.8125 3.078125 -0.8125q1.21875 0 2.1875 0.453125q0.96875 0.4375 1.484375 1.171875q0.515625 0.734375 0.75 1.921875l-1.5 0.171875q-0.25 -1.1875 -1.015625 -1.8125q-0.75 -0.625 -1.953125 -0.625q-1.234375 0 -2.3125 0.671875q-1.078125 0.671875 -1.734375 2.046875q-0.640625 1.359375 -0.640625 3.09375q0 1.71875 0.84375 2.609375q0.859375 0.875 2.359375 0.875q1.5 0 3.21875 -0.984375l0.515625 -2.453125l-3.484375 0z" fill-rule="nonzero"/><path fill="#efefef" d="m51.53806 132.86621l0 0c0 -2.0497284 1.6616325 -3.7113495 3.711357 -3.7113495l124.89224 0c0.98431396 0 1.9283142 0.39100647 2.6243286 1.0870209c0.6960144 0.6960144 1.0870209 1.6400146 1.0870209 2.6243286l0 14.845001c0 2.0497284 -1.6616211 3.7113647 -3.7113495 3.7113647l-124.89224 0c-2.0497246 0 -3.711357 -1.6616364 -3.711357 -3.7113647z" fill-rule="evenodd"/><path stroke="#000000" stroke-width="1.0" stroke-linejoin="round" stroke-linecap="butt" d="m51.53806 132.86621l0 0c0 -2.0497284 1.6616325 -3.7113495 3.711357 -3.7113495l124.89224 0c0.98431396 0 1.9283142 0.39100647 2.6243286 1.0870209c0.6960144 0.6960144 1.0870209 1.6400146 1.0870209 2.6243286l0 14.845001c0 2.0497284 -1.6616211 3.7113647 -3.7113495 3.7113647l-124.89224 0c-2.0497246 0 -3.711357 -1.6616364 -3.711357 -3.7113647z" fill-rule="evenodd"/><path fill="#000000" d="m71.91429 134.69559l1.515625 0l0 6.609375q0 1.734375 -0.390625 2.75q-0.390625 1.015625 -1.40625 1.65625q-1.015625 0.640625 -2.671875 0.640625q-1.609375 0 -2.640625 -0.5625q-1.015625 -0.5625 -1.453125 -1.609375q-0.4375 -1.046875 -0.4375 -2.875l0 -6.609375l1.515625 0l0 6.609375q0 1.484375 0.265625 2.203125q0.28125 0.703125 0.953125 1.09375q0.6875 0.375 1.65625 0.375q1.671875 0 2.375 -0.75q0.71875 -0.765625 0.71875 -2.921875l0 -6.609375zm4.0234375 11.453125l0 -11.453125l1.5625 0l6.015625 8.984375l0 -8.984375l1.453125 0l0 11.453125l-1.5625 0l-6.015625 -9.0l0 9.0l-1.453125 0zm11.8359375 0l0 -11.453125l1.515625 0l0 11.453125l-1.515625 0zm4.1640625 0l0 -11.453125l1.5625 0l6.015625 8.984375l0 -8.984375l1.453125 0l0 11.453125l-1.5625 0l-6.015625 -9.0l0 9.0l-1.453125 0zm11.0546875 -3.6875l1.4375 -0.125q0.09375 0.859375 0.46875 1.421875q0.375 0.546875 1.15625 0.890625q0.78125 0.328125 1.75 0.328125q0.875 0 1.53125 -0.25q0.671875 -0.265625 0.984375 -0.703125q0.328125 -0.453125 0.328125 -0.984375q0 -0.546875 -0.3125 -0.9375q-0.3125 -0.40625 -1.03125 -0.6875q-0.453125 -0.171875 -2.03125 -0.546875q-1.578125 -0.390625 -2.21875 -0.71875q-0.8125 -0.4375 -1.21875 -1.0625q-0.40625 -0.640625 -0.40625 -1.4375q0 -0.859375 0.484375 -1.609375q0.5 -0.765625 1.4375 -1.15625q0.953125 -0.390625 2.109375 -0.390625q1.28125 0 2.25 0.421875q0.96875 0.40625 1.484375 1.203125q0.53125 0.796875 0.578125 1.796875l-1.453125 0.109375q-0.125 -1.078125 -0.796875 -1.625q-0.671875 -0.5625 -2.0 -0.5625q-1.375 0 -2.0 0.5q-0.625 0.5 -0.625 1.21875q0 0.609375 0.4375 1.015625q0.4375 0.390625 2.28125 0.8125q1.859375 0.421875 2.546875 0.734375q1.0 0.453125 1.46875 1.171875q0.484375 0.703125 0.484375 1.625q0 0.90625 -0.53125 1.71875q-0.515625 0.8125 -1.5 1.265625q-0.984375 0.453125 -2.203125 0.453125q-1.5625 0 -2.609375 -0.453125q-1.046875 -0.46875 -1.65625 -1.375q-0.59375 -0.90625 -0.625 -2.0625zm14.109375 3.6875l0 -10.109375l-3.78125 0l0 -1.34375l9.078125 0l0 1.34375l-3.78125 0l0 10.109375l-1.515625 0zm4.3984375 0l4.40625 -11.453125l1.640625 0l4.6875 11.453125l-1.734375 0l-1.328125 -3.46875l-4.796875 0l-1.25 3.46875l-1.625 0zm3.3125 -4.703125l3.890625 0l-1.203125 -3.171875q-0.546875 -1.453125 -0.8125 -2.375q-0.21875 1.09375 -0.609375 2.1875l-1.265625 3.359375zm8.5625 4.703125l0 -11.453125l1.515625 0l0 10.09375l5.640625 0l0 1.359375l-7.15625 0zm8.8984375 0l0 -11.453125l1.515625 0l0 10.09375l5.640625 0l0 1.359375l-7.15625 0zm8.9921875 0l0 -11.453125l8.28125 0l0 1.34375l-6.765625 0l0 3.515625l6.34375 0l0 1.34375l-6.34375 0l0 3.890625l7.03125 0l0 1.359375l-8.546875 0zm10.640625 0l0 -11.453125l3.953125 0q1.328125 0 2.03125 0.15625q0.984375 0.234375 1.6875 0.828125q0.90625 0.765625 1.34375 1.953125q0.453125 1.1875 0.453125 2.71875q0 1.3125 -0.3125 2.328125q-0.296875 1.0 -0.78125 1.65625q-0.46875 0.65625 -1.03125 1.046875q-0.5625 0.375 -1.375 0.578125q-0.796875 0.1875 -1.828125 0.1875l-4.140625 0zm1.515625 -1.359375l2.453125 0q1.125 0 1.765625 -0.203125q0.65625 -0.21875 1.03125 -0.59375q0.546875 -0.546875 0.84375 -1.453125q0.296875 -0.90625 0.296875 -2.203125q0 -1.796875 -0.59375 -2.765625q-0.578125 -0.96875 -1.421875 -1.296875q-0.609375 -0.234375 -1.96875 -0.234375l-2.40625 0l0 8.75z" fill-rule="nonzero"/><path fill="#efefef" d="m387.7953 74.91871l0 0c0 -2.0497284 1.6616211 -3.711357 3.7113342 -3.711357l119.254456 0c0.98431396 0 1.9283142 0.3910141 2.6243591 1.0870285c0.6959839 0.6960144 1.0869751 1.6400146 1.0869751 2.6243286l0 14.844994c0 2.0497284 -1.6616211 3.7113647 -3.7113342 3.7113647l-119.254456 0c-2.0497131 0 -3.7113342 -1.6616364 -3.7113342 -3.7113647z" fill-rule="evenodd"/><path stroke="#000000" stroke-width="1.0" stroke-linejoin="round" stroke-linecap="butt" d="m387.7953 74.91871l0 0c0 -2.0497284 1.6616211 -3.711357 3.7113342 -3.711357l119.254456 0c0.98431396 0 1.9283142 0.3910141 2.6243591 1.0870285c0.6959839 0.6960144 1.0869751 1.6400146 1.0869751 2.6243286l0 14.844994c0 2.0497284 -1.6616211 3.7113647 -3.7113342 3.7113647l-119.254456 0c-2.0497131 0 -3.7113342 -1.6616364 -3.7113342 -3.7113647z" fill-rule="evenodd"/><path fill="#000000" d="m422.20807 88.20121l4.40625 -11.453125l1.640625 0l4.6875 11.453125l-1.734375 0l-1.328125 -3.46875l-4.796875 0l-1.25 3.46875l-1.625 0zm3.3125 -4.703125l3.890625 0l-1.203125 -3.171875q-0.546875 -1.453125 -0.8125 -2.375q-0.21875 1.09375 -0.609375 2.1875l-1.265625 3.359375zm16.796875 0.6875l1.515625 0.375q-0.46875 1.875 -1.71875 2.859375q-1.234375 0.984375 -3.015625 0.984375q-1.859375 0 -3.015625 -0.75q-1.15625 -0.765625 -1.765625 -2.1875q-0.609375 -1.4375 -0.609375 -3.078125q0 -1.796875 0.6875 -3.125q0.6875 -1.328125 1.9375 -2.015625q1.265625 -0.703125 2.78125 -0.703125q1.71875 0 2.890625 0.875q1.171875 0.875 1.640625 2.46875l-1.5 0.34375q-0.390625 -1.25 -1.15625 -1.8125q-0.75 -0.578125 -1.90625 -0.578125q-1.3125 0 -2.203125 0.640625q-0.890625 0.625 -1.25 1.703125q-0.359375 1.0625 -0.359375 2.1875q0 1.46875 0.421875 2.5625q0.4375 1.078125 1.328125 1.625q0.90625 0.53125 1.953125 0.53125q1.265625 0 2.140625 -0.734375q0.890625 -0.734375 1.203125 -2.171875zm6.3046875 4.015625l0 -10.109375l-3.78125 0l0 -1.34375l9.078125 0l0 1.34375l-3.78125 0l0 10.109375l-1.515625 0zm7.1171875 0l0 -11.453125l1.515625 0l0 11.453125l-1.515625 0zm7.4609375 0l-4.4375 -11.453125l1.640625 0l2.96875 8.3125q0.359375 1.0 0.609375 1.875q0.265625 -0.9375 0.609375 -1.875l3.09375 -8.3125l1.546875 0l-4.484375 11.453125l-1.546875 0zm7.421875 0l0 -11.453125l8.28125 0l0 1.34375l-6.765625 0l0 3.515625l6.34375 0l0 1.34375l-6.34375 0l0 3.890625l7.03125 0l0 1.359375l-8.546875 0z" fill-rule="nonzero"/></g></svg>